<svg width="22" height="22" viewBox="0 0 22 22" fill="none" xmlns="http://www.w3.org/2000/svg">
  <path d="M16.8438 3.4375H9.96875C9.33078 3.43818 8.71914 3.69192 8.26803 4.14303C7.81692 4.59414 7.56318 5.20578 7.5625 5.84375V10.3125H14.1526L11.889 8.04848C11.7655 7.9185 11.6977 7.74542 11.7 7.56614C11.7023 7.38687 11.7745 7.21559 11.9013 7.08881C12.0281 6.96203 12.1994 6.8898 12.3786 6.8875C12.5579 6.88521 12.731 6.95303 12.861 7.07652L16.2985 10.514C16.4273 10.6429 16.4997 10.8177 16.4997 11C16.4997 11.1823 16.4273 11.3571 16.2985 11.486L12.861 14.9235C12.731 15.047 12.5579 15.1148 12.3786 15.1125C12.1994 15.1102 12.0281 15.038 11.9013 14.9112C11.7745 14.7844 11.7023 14.6131 11.7 14.4339C11.6977 14.2546 11.7655 14.0815 11.889 13.9515L14.1526 11.6875H7.5625V16.1562C7.5625 17.5334 9.01441 18.5625 10.3125 18.5625H16.8438C17.4817 18.5618 18.0934 18.3081 18.5445 17.857C18.9956 17.4059 19.2493 16.7942 19.25 16.1562V5.84375C19.2493 5.20578 18.9956 4.59414 18.5445 4.14303C18.0934 3.69192 17.4817 3.43818 16.8438 3.4375ZM3.4375 10.3125C3.25516 10.3125 3.0803 10.3849 2.95136 10.5139C2.82243 10.6428 2.75 10.8177 2.75 11C2.75 11.1823 2.82243 11.3572 2.95136 11.4861C3.0803 11.6151 3.25516 11.6875 3.4375 11.6875H7.5625V10.3125H3.4375Z" fill="#A94BEA"/>
</svg>
