<svg width="22" height="22" viewBox="0 0 22 22" fill="none" xmlns="http://www.w3.org/2000/svg">
  <g clip-path="url(#clip0_100_94)">
    <path d="M7.7 0C7.11652 0 6.55694 0.231785 6.14437 0.644365C5.73178 1.05695 5.5 1.61652 5.5 2.2H15.4C15.9835 2.2 16.5431 2.43179 16.9556 2.84437C17.3682 3.25695 17.6 3.81652 17.6 4.4V17.6C18.1835 17.6 18.7431 17.3682 19.1556 16.9556C19.5682 16.5431 19.8 15.9835 19.8 15.4V2.2C19.8 1.61652 19.5682 1.05695 19.1556 0.644365C18.7431 0.231785 18.1835 0 17.6 0L7.7 0Z" fill="#A94BEA"/>
    <path d="M14.3002 22C14.8837 22 15.4432 21.7682 15.8558 21.3556C16.2684 20.943 16.5002 20.3835 16.5002 19.8V5.49999C16.5002 4.91651 16.2684 4.35693 15.8558 3.94435C15.4432 3.53177 14.8837 3.29999 14.3002 3.29999H4.4002C3.81672 3.29999 3.25714 3.53177 2.84456 3.94435C2.43198 4.35693 2.2002 4.91651 2.2002 5.49999V19.8C2.2002 20.3835 2.43198 20.943 2.84456 21.3556C3.25714 21.7682 3.81672 22 4.4002 22H14.3002ZM9.9002 5.49999H14.3002V11H9.9002V5.49999ZM4.4002 5.49999H8.8002V6.59999H4.4002V5.49999ZM4.4002 7.69999H8.8002V8.79999H4.4002V7.69999ZM4.4002 9.89999H8.8002V11H4.4002V9.89999ZM4.4002 12.1H14.3002V13.2H4.4002V12.1ZM4.4002 14.3H14.3002V15.4H4.4002V14.3ZM4.4002 16.5H14.3002V17.6H4.4002V16.5Z" fill="#A94BEA"/>
  </g>
  <defs>
    <clipPath id="clip0_100_94">
      <rect width="22" height="22" fill="white"/>
    </clipPath>
  </defs>
</svg>
