<svg width="16" height="16" viewBox="0 0 16 16" fill="none" xmlns="http://www.w3.org/2000/svg">
<path d="M0.5 5.75C0.5 4.3355 0.5 3.629 0.9395 3.1895C1.379 2.75 2.0855 2.75 3.5 2.75H12.5C13.9145 2.75 14.621 2.75 15.0605 3.1895C15.5 3.629 15.5 4.3355 15.5 5.75C15.5 6.10325 15.5 6.28025 15.3905 6.3905C15.2802 6.5 15.1025 6.5 14.75 6.5H1.25C0.89675 6.5 0.71975 6.5 0.6095 6.3905C0.5 6.28025 0.5 6.1025 0.5 5.75ZM0.5 12.5C0.5 13.9145 0.5 14.621 0.9395 15.0605C1.379 15.5 2.0855 15.5 3.5 15.5H12.5C13.9145 15.5 14.621 15.5 15.0605 15.0605C15.5 14.621 15.5 13.9145 15.5 12.5V8.75C15.5 8.39675 15.5 8.21975 15.3905 8.1095C15.2802 8 15.1025 8 14.75 8H1.25C0.89675 8 0.71975 8 0.6095 8.1095C0.5 8.21975 0.5 8.3975 0.5 8.75V12.5Z" fill="#666666"/>
<path d="M4.25 1.25V3.5M11.75 1.25V3.5" stroke="#666666" stroke-width="2.5" stroke-linecap="round"/>
</svg>
