<svg width="22" height="22" viewBox="0 0 22 22" fill="#A94BEA" xmlns="http://www.w3.org/2000/svg">
  <path d="M19.9375 6.875H16.5V8.25H19.9375V12.375H15.125V13.75H17.1875V15.2226C16.5394 15.39 15.9746 15.7879 15.599 16.3419C15.2233 16.8959 15.0626 17.5678 15.1469 18.2318C15.2313 18.8958 15.5549 19.5063 16.0571 19.9487C16.5593 20.3912 17.2057 20.6353 17.875 20.6353C18.5443 20.6353 19.1907 20.3912 19.6929 19.9487C20.1951 19.5063 20.5187 18.8958 20.6031 18.2318C20.6874 17.5678 20.5267 16.8959 20.151 16.3419C19.7754 15.7879 19.2106 15.39 18.5625 15.2226V13.75H19.9375C20.302 13.7495 20.6514 13.6044 20.9092 13.3467C21.1669 13.0889 21.312 12.7395 21.3125 12.375V8.25C21.3125 7.88533 21.1676 7.53559 20.9098 7.27773C20.6519 7.01987 20.3022 6.875 19.9375 6.875ZM19.25 17.875C19.25 18.1469 19.1694 18.4128 19.0183 18.6389C18.8672 18.865 18.6524 19.0413 18.4012 19.1453C18.1499 19.2494 17.8735 19.2766 17.6068 19.2236C17.34 19.1705 17.095 19.0396 16.9027 18.8473C16.7104 18.655 16.5795 18.41 16.5264 18.1432C16.4734 17.8765 16.5006 17.6001 16.6047 17.3488C16.7087 17.0976 16.885 16.8828 17.1111 16.7317C17.3372 16.5806 17.6031 16.5 17.875 16.5C18.2395 16.5005 18.5889 16.6456 18.8467 16.9033C19.1044 17.1611 19.2495 17.5105 19.25 17.875ZM13.0625 4.125H9.625V5.5H13.0625V9.625H8.25V11H10.3125V15.2226C9.66442 15.39 9.09962 15.7879 8.72396 16.3419C8.3483 16.8959 8.18758 17.5678 8.27192 18.2318C8.35626 18.8958 8.67987 19.5063 9.18209 19.9487C9.68431 20.3912 10.3307 20.6353 11 20.6353C11.6693 20.6353 12.3157 20.3912 12.8179 19.9487C13.3201 19.5063 13.6437 18.8958 13.7281 18.2318C13.8124 17.5678 13.6517 16.8959 13.276 16.3419C12.9004 15.7879 12.3356 15.39 11.6875 15.2226V11H13.0625C13.4272 11 13.7769 10.8551 14.0348 10.5973C14.2926 10.3394 14.4375 9.98967 14.4375 9.625V5.5C14.4375 5.13533 14.2926 4.78559 14.0348 4.52773C13.7769 4.26987 13.4272 4.125 13.0625 4.125ZM12.375 17.875C12.375 18.1469 12.2944 18.4128 12.1433 18.6389C11.9922 18.865 11.7774 19.0413 11.5262 19.1453C11.2749 19.2494 10.9985 19.2766 10.7318 19.2236C10.465 19.1705 10.22 19.0396 10.0277 18.8473C9.83543 18.655 9.70447 18.41 9.65142 18.1432C9.59837 17.8765 9.6256 17.6001 9.72967 17.3488C9.83374 17.0976 10.01 16.8828 10.2361 16.7317C10.4622 16.5806 10.7281 16.5 11 16.5C11.3645 16.5005 11.7139 16.6456 11.9717 16.9033C12.2294 17.1611 12.3745 17.5105 12.375 17.875ZM6.1875 1.375H2.0625C1.69783 1.375 1.34809 1.51987 1.09023 1.77773C0.832366 2.03559 0.6875 2.38533 0.6875 2.75V6.875C0.6875 7.23967 0.832366 7.58941 1.09023 7.84727C1.34809 8.10513 1.69783 8.25 2.0625 8.25H3.4375V15.2226C2.78942 15.39 2.22462 15.7879 1.84896 16.3419C1.4733 16.8959 1.31258 17.5678 1.39692 18.2318C1.48126 18.8958 1.80487 19.5063 2.30709 19.9487C2.80931 20.3912 3.45567 20.6353 4.125 20.6353C4.79433 20.6353 5.44069 20.3912 5.94291 19.9487C6.44513 19.5063 6.76874 18.8958 6.85308 18.2318C6.93742 17.5678..." />
</svg>
