<svg width="30" height="30" viewBox="0 0 30 30" fill="none" xmlns="http://www.w3.org/2000/svg">
<g clip-path="url(#clip0_245_232)">
<path fill-rule="evenodd" clip-rule="evenodd" d="M14.9721 3.21429C14.0764 3.19811 13.1862 3.35874 12.3525 3.68699C11.5189 4.01524 10.7582 4.50466 10.1139 5.12724C9.46961 5.74982 8.95443 6.49334 8.59783 7.31525C8.24124 8.13716 8.05022 9.02133 8.03571 9.91714V19.2857C8.03571 19.854 7.80995 20.3991 7.40809 20.8009C7.00622 21.2028 6.46118 21.4286 5.89286 21.4286H3.21429C2.3618 21.4286 1.54424 21.0899 0.941442 20.4871C0.338647 19.8843 0 19.0668 0 18.2143L0 13.9286C0 13.0761 0.338647 12.2585 0.941442 11.6557C1.54424 11.0529 2.3618 10.7143 3.21429 10.7143H4.82143V9.87857C4.84098 8.56156 5.11978 7.2613 5.64191 6.05204C6.16404 4.84279 6.91927 3.74824 7.86447 2.8309C8.80967 1.91356 9.92632 1.19141 11.1506 0.705676C12.375 0.219945 13.683 -0.0198445 15 1.74972e-06C16.317 -0.0198445 17.625 0.219945 18.8494 0.705676C20.0737 1.19141 21.1903 1.91356 22.1355 2.8309C23.0807 3.74824 23.836 4.84279 24.3581 6.05204C24.8802 7.2613 25.159 8.56156 25.1786 9.87857V10.7143H26.7857C27.6382 10.7143 28.4558 11.0529 29.0586 11.6557C29.6614 12.2585 30 13.0761 30 13.9286V18.2143C30 19.0668 29.6614 19.8843 29.0586 20.4871C28.4558 21.0899 27.6382 21.4286 26.7857 21.4286H25.1786V22.5C25.1788 23.9481 24.6459 25.3455 23.6816 26.4257C22.7172 27.5059 21.3888 28.1932 19.95 28.3564C19.6706 28.8553 19.2631 29.2706 18.7697 29.5595C18.2762 29.8484 17.7147 30.0005 17.1429 30H13.9286C13.0761 30 12.2585 29.6614 11.6557 29.0586C11.0529 28.4558 10.7143 27.6382 10.7143 26.7857C10.7143 25.9332 11.0529 25.1157 11.6557 24.5129C12.2585 23.9101 13.0761 23.5714 13.9286 23.5714H17.1429C18.3043 23.5714 19.3221 24.1864 19.8857 25.11C20.4763 24.9743 21.0035 24.6422 21.381 24.1682C21.7586 23.6941 21.9642 23.106 21.9643 22.5V9.915C21.9496 9.01457 21.7566 8.12599 21.3963 7.30061C21.0361 6.47524 20.5159 5.72945 19.8657 5.10636C19.2155 4.48327 18.4483 3.99524 17.6083 3.67048C16.7684 3.34571 15.8724 3.19066 14.9721 3.21429Z" fill="black"/>
</g>
<defs>
<clipPath id="clip0_245_232">
<rect width="30" height="30" fill="white"/>
</clipPath>
</defs>
</svg>
