<svg width="18" height="18" viewBox="0 0 18 18" fill="none" xmlns="http://www.w3.org/2000/svg">
  <path d="M8.07861 2.29V5.84667C8.07861 6.14116 8.02046 6.43276 7.90748 6.70473C7.79451 6.97669 7.62893 7.22367 7.42027 7.43148C7.2116 7.63929 6.96395 7.80385 6.69153 7.91572C6.4191 8.02758 6.12727 8.08454 5.83278 8.08333H2.29444C2.00074 8.08512 1.70971 8.02758 1.43878 7.91417C1.16786 7.80076 0.922623 7.63381 0.717776 7.42333C0.509798 7.21709 0.345098 6.97139 0.233338 6.70064C0.121577 6.4299 0.0650064 6.13956 0.0669426 5.84667V2.29917C0.0669376 1.70755 0.301327 1.14003 0.718803 0.720837C1.13628 0.301643 1.70283 0.0649247 2.29444 0.0625H5.84194C6.13534 0.0627819 6.42576 0.121261 6.69639 0.234551C6.96703 0.347841 7.21251 0.513691 7.41861 0.7225C7.62714 0.926902 7.7929 1.17077 7.90621 1.43989C8.01952 1.70901 8.07813 1.998 8.07861 2.29ZM17.9328 2.29917V5.84667C17.928 6.43682 17.6921 7.00158 17.2756 7.41975C16.8592 7.83792 16.2954 8.07616 15.7053 8.08333H12.1486C11.5557 8.07971 10.9873 7.84642 10.5628 7.4325C10.3553 7.22395 10.1911 6.97653 10.0794 6.70441C9.96773 6.43229 9.91082 6.14081 9.91194 5.84667V2.29917C9.9112 2.00562 9.96922 1.7149 10.0826 1.44412C10.1959 1.17334 10.3623 0.927981 10.5719 0.7225C10.778 0.513691 11.0235 0.347841 11.2942 0.234551C11.5648 0.121261 11.8552 0.0627819 12.1486 0.0625H15.6961C16.2878 0.0672915 16.854 0.304478 17.2724 0.7229C17.6908 1.14132 17.928 1.70745 17.9328 2.29917ZM17.9328 12.1533V15.7008C17.928 16.291 17.6921 16.8557 17.2756 17.2739C16.8592 17.6921 16.2954 17.9303 15.7053 17.9375H12.1486C11.5519 17.9436 10.9764 17.7166 10.5444 17.305C10.3362 17.0971 10.1714 16.8498 10.0597 16.5775C9.94792 16.3052 9.89148 16.0135 9.89361 15.7192V12.1717C9.89287 11.8781 9.95088 11.5874 10.0642 11.3166C10.1776 11.0458 10.344 10.8005 10.5536 10.595C10.7597 10.3862 11.0052 10.2203 11.2758 10.1071C11.5465 9.99376 11.8369 9.93528 12.1303 9.935H15.6778C16.2695 9.93979 16.8356 10.177 17.254 10.5954C17.6725 11.0138 17.9097 11.5799 17.9144 12.1717L17.9328 12.1533ZM8.07861 12.1625V15.71C8.0714 16.3017 7.83189 16.8669 7.41175 17.2836C6.99162 17.7003 6.42452 17.9351 5.83278 17.9375H2.29444C2.00158 17.9387 1.71138 17.8819 1.44058 17.7704C1.16978 17.6589 0.923743 17.4949 0.716658 17.2878C0.509574 17.0807 0.345544 16.8347 0.234031 16.5639C0.122518 16.2931 0.0657299 16.0029 0.0669426 15.71V12.1625C0.0693041 11.5708 0.304169 11.0037 0.720877 10.5835C1.13759 10.1634 1.70274 9.92388 2.29444 9.91667H5.84194C6.43613 9.92275 7.00472 10.1594 7.42778 10.5767C7.84586 10.9984 8.07987 11.5686 8.07861 12.1625Z" fill="#A94BEA"/>
</svg>
