<svg width="23" height="22" viewBox="0 0 23 22" fill="none" xmlns="http://www.w3.org/2000/svg">
<path d="M13.945 4.44033L16.5593 7.05466M7.24967 6.41666H4.49967C4.25656 6.41666 4.0234 6.51324 3.85149 6.68515C3.67958 6.85706 3.58301 7.09021 3.58301 7.33333V16.5C3.58301 16.7431 3.67958 16.9763 3.85149 17.1482C4.0234 17.3201 4.25656 17.4167 4.49967 17.4167H14.583C14.8261 17.4167 15.0593 17.3201 15.2312 17.1482C15.4031 16.9763 15.4997 16.7431 15.4997 16.5V12.375M17.7079 3.29083C17.8797 3.46253 18.0159 3.66638 18.1089 3.89074C18.2019 4.11511 18.2497 4.35559 18.2497 4.59845C18.2497 4.84131 18.2019 5.0818 18.1089 5.30616C18.0159 5.53053 17.8797 5.73438 17.7079 5.90608L11.4343 12.1797L8.16634 12.8333L8.81992 9.56541L15.0936 3.29175C15.2651 3.1199 15.4689 2.98357 15.6932 2.89056C15.9175 2.79754 16.1579 2.74966 16.4008 2.74966C16.6436 2.74966 16.884 2.79754 17.1083 2.89056C17.3326 2.98357 17.5364 3.1199 17.7079 3.29175V3.29083Z" stroke="white" stroke-width="1.83333" stroke-linecap="round" stroke-linejoin="round"/>
</svg>
