<svg width="23" height="22" viewBox="0 0 23 22" fill="none" xmlns="http://www.w3.org/2000/svg">
<path d="M11.5105 8.25L14.4163 11.1467V11C14.4163 10.2707 14.1266 9.57118 13.6109 9.05546C13.0952 8.53973 12.3957 8.25 11.6663 8.25H11.5105ZM7.56884 8.98333L8.98968 10.4042C8.94384 10.5967 8.91634 10.7892 8.91634 11C8.91634 11.7293 9.20607 12.4288 9.7218 12.9445C10.2375 13.4603 10.937 13.75 11.6663 13.75C11.868 13.75 12.0697 13.7225 12.2622 13.6767L13.683 15.0975C13.0688 15.4 12.3905 15.5833 11.6663 15.5833C10.4508 15.5833 9.28498 15.1004 8.42544 14.2409C7.56589 13.3814 7.08301 12.2156 7.08301 11C7.08301 10.2758 7.26634 9.5975 7.56884 8.98333ZM2.49967 3.91417L4.58967 6.00417L5.00217 6.41667C3.48967 7.60833 2.29801 9.16667 1.58301 11C3.16884 15.0242 7.08301 17.875 11.6663 17.875C13.0872 17.875 14.4438 17.6 15.6813 17.105L16.0755 17.49L18.7522 20.1667L19.9163 19.0025L3.66384 2.75M11.6663 6.41667C12.8819 6.41667 14.0477 6.89955 14.9072 7.75909C15.7668 8.61864 16.2497 9.78442 16.2497 11C16.2497 11.5867 16.1305 12.155 15.9197 12.6683L18.6055 15.3542C19.9805 14.2083 21.0805 12.705 21.7497 11C20.1638 6.97583 16.2497 4.125 11.6663 4.125C10.383 4.125 9.15468 4.35417 7.99967 4.76667L9.98884 6.7375C10.5113 6.53583 11.0705 6.41667 11.6663 6.41667Z" fill="#B3B3B3"/>
</svg>
