<svg width="22" height="22" viewBox="0 0 22 22" fill="none" xmlns="http://www.w3.org/2000/svg">
<path d="M11 11C10.7403 11 10.5227 10.912 10.3473 10.736C10.1719 10.56 10.0839 10.3425 10.0833 10.0833V2.75001C10.0833 2.49029 10.1713 2.27274 10.3473 2.09735C10.5233 1.92196 10.7409 1.83396 11 1.83335C11.2591 1.83274 11.477 1.92074 11.6536 2.09735C11.8302 2.27396 11.9179 2.49151 11.9167 2.75001V10.0833C11.9167 10.3431 11.8287 10.5609 11.6527 10.7369C11.4767 10.9129 11.2591 11.0006 11 11ZM11 19.25C9.85417 19.25 8.78106 19.0325 7.78067 18.5973C6.78028 18.1622 5.90944 17.574 5.16817 16.8328C4.42689 16.0915 3.83869 15.2207 3.40358 14.2203C2.96847 13.2199 2.75061 12.1465 2.75 11C2.75 10.0681 2.90278 9.16271 3.20833 8.28393C3.51389 7.40515 3.95694 6.5994 4.5375 5.86668C4.70556 5.65279 4.91944 5.54982 5.17917 5.55776C5.43889 5.56571 5.66806 5.66868 5.86667 5.86668C6.03472 6.03474 6.11111 6.24099 6.09583 6.48543C6.08056 6.72987 5.99653 6.95904 5.84375 7.17293C5.43125 7.72293 5.11806 8.3264 4.90417 8.98335C4.69028 9.64029 4.58333 10.3125 4.58333 11C4.58333 12.7875 5.20606 14.304 6.4515 15.5494C7.69694 16.7949 9.21311 17.4173 11 17.4167C12.7869 17.4161 14.3034 16.7937 15.5494 15.5494C16.7955 14.3052 17.4179 12.7887 17.4167 11C17.4167 10.2972 17.3137 9.6134 17.1077 8.94851C16.9018 8.28362 16.577 7.67649 16.1333 7.1271C15.9806 6.92849 15.8965 6.71093 15.8813 6.47443C15.866 6.23793 15.9424 6.03535 16.1104 5.86668C16.2938 5.68335 16.5153 5.58801 16.775 5.58068C17.0347 5.57335 17.2486 5.66868 17.4167 5.86668C18.0125 6.60001 18.4672 7.4021 18.7807 8.27293C19.0942 9.14376 19.2506 10.0528 19.25 11C19.25 12.1458 19.0324 13.2193 18.5973 14.2203C18.1622 15.2213 17.574 16.0921 16.8328 16.8328C16.0915 17.5734 15.2206 18.1616 14.2203 18.5973C13.2199 19.0331 12.1464 19.2506 11 19.25Z" fill="#A94BEA"/>
</svg>
