<?xml version="1.0" standalone="no"?>
<!DOCTYPE svg PUBLIC "-//W3C//DTD SVG 20010904//EN"
 "http://www.w3.org/TR/2001/REC-SVG-20010904/DTD/svg10.dtd">
<svg version="1.0" xmlns="http://www.w3.org/2000/svg"
 width="90.000000pt" height="90.000000pt" viewBox="0 0 90.000000 90.000000"
 preserveAspectRatio="xMidYMid meet">

<g transform="translate(0.000000,90.000000) scale(0.100000,-0.100000)"
fill="#A94BEA" stroke="none">
<path d="M577 683 c-4 -3 -7 -37 -7 -75 l0 -68 -235 0 c-222 0 -236 -1 -255
-20 -28 -28 -28 -112 0 -140 19 -19 33 -20 255 -20 l234 0 3 -72 c4 -107 16
-104 154 33 63 63 114 121 114 129 0 20 -221 240 -241 240 -9 0 -19 -3 -22 -7z"/>
</g>
</svg>
