<svg width="15" height="16" viewBox="0 0 15 16" fill="none" xmlns="http://www.w3.org/2000/svg">
<path d="M10.4167 9.66667H9.75834L9.525 9.44167C10.3699 8.46169 10.8343 7.21058 10.8333 5.91667C10.8333 4.84535 10.5157 3.7981 9.92046 2.90733C9.32527 2.01656 8.4793 1.3223 7.48954 0.912322C6.49977 0.502347 5.41066 0.395079 4.35993 0.604082C3.3092 0.813085 2.34404 1.32897 1.58651 2.08651C0.828973 2.84404 0.313085 3.8092 0.104082 4.85993C-0.104921 5.91066 0.00234696 6.99977 0.412322 7.98954C0.822296 8.9793 1.51656 9.82527 2.40733 10.4205C3.2981 11.0157 4.34535 11.3333 5.41667 11.3333C6.75834 11.3333 7.99167 10.8417 8.94167 10.025L9.16667 10.2583V10.9167L13.3333 15.075L14.575 13.8333L10.4167 9.66667ZM5.41667 9.66667C3.34167 9.66667 1.66667 7.99167 1.66667 5.91667C1.66667 3.84167 3.34167 2.16667 5.41667 2.16667C7.49167 2.16667 9.16667 3.84167 9.16667 5.91667C9.16667 7.99167 7.49167 9.66667 5.41667 9.66667Z" fill="#B9C2CA"/>
</svg>
