<svg width="21" height="20" viewBox="0 0 21 20" fill="none" xmlns="http://www.w3.org/2000/svg">
<path d="M13.4167 11.6667H12.7583L12.525 11.4417C13.3699 10.4617 13.8343 9.21058 13.8333 7.91667C13.8333 6.84535 13.5157 5.7981 12.9205 4.90733C12.3253 4.01656 11.4793 3.3223 10.4895 2.91232C9.49977 2.50235 8.41066 2.39508 7.35993 2.60408C6.3092 2.81309 5.34404 3.32897 4.58651 4.08651C3.82897 4.84404 3.31309 5.8092 3.10408 6.85993C2.89508 7.91066 3.00235 8.99977 3.41232 9.98954C3.8223 10.9793 4.51656 11.8253 5.40733 12.4205C6.2981 13.0157 7.34535 13.3333 8.41667 13.3333C9.75834 13.3333 10.9917 12.8417 11.9417 12.025L12.1667 12.2583V12.9167L16.3333 17.075L17.575 15.8333L13.4167 11.6667ZM8.41667 11.6667C6.34167 11.6667 4.66667 9.99167 4.66667 7.91667C4.66667 5.84167 6.34167 4.16667 8.41667 4.16667C10.4917 4.16667 12.1667 5.84167 12.1667 7.91667C12.1667 9.99167 10.4917 11.6667 8.41667 11.6667Z" fill="#B9C2CA"/>
</svg>
