<svg width="21" height="14" viewBox="0 0 21 14" fill="none" xmlns="http://www.w3.org/2000/svg">
<path d="M10.6663 4.25C9.937 4.25 9.23752 4.53973 8.7218 5.05546C8.20607 5.57118 7.91634 6.27065 7.91634 7C7.91634 7.72935 8.20607 8.42882 8.7218 8.94454C9.23752 9.46027 9.937 9.75 10.6663 9.75C11.3957 9.75 12.0952 9.46027 12.6109 8.94454C13.1266 8.42882 13.4163 7.72935 13.4163 7C13.4163 6.27065 13.1266 5.57118 12.6109 5.05546C12.0952 4.53973 11.3957 4.25 10.6663 4.25ZM10.6663 11.5833C9.45077 11.5833 8.28498 11.1004 7.42544 10.2409C6.56589 9.38136 6.08301 8.21558 6.08301 7C6.08301 5.78442 6.56589 4.61864 7.42544 3.75909C8.28498 2.89955 9.45077 2.41667 10.6663 2.41667C11.8819 2.41667 13.0477 2.89955 13.9072 3.75909C14.7668 4.61864 15.2497 5.78442 15.2497 7C15.2497 8.21558 14.7668 9.38136 13.9072 10.2409C13.0477 11.1004 11.8819 11.5833 10.6663 11.5833ZM10.6663 0.125C6.08301 0.125 2.16884 2.97583 0.583008 7C2.16884 11.0242 6.08301 13.875 10.6663 13.875C15.2497 13.875 19.1638 11.0242 20.7497 7C19.1638 2.97583 15.2497 0.125 10.6663 0.125Z" fill="#004BFE"/>
</svg>
