<svg width="25" height="28" viewBox="0 0 25 28" fill="none" xmlns="http://www.w3.org/2000/svg">
<path d="M12.832 0.5H2.83203C2.16899 0.5 1.53311 0.763392 1.06426 1.23223C0.595423 1.70107 0.332031 2.33696 0.332031 3V23C0.332031 23.663 0.595423 24.2989 1.06426 24.7678C1.53311 25.2366 2.16899 25.5 2.83203 25.5H11.582C11.0695 25.1875 10.582 24.8 10.157 24.375C9.37166 23.6525 8.73678 22.782 8.28887 21.8134C7.84097 20.8449 7.58886 19.7973 7.54705 18.731C7.50523 17.6647 7.67453 16.6007 8.04521 15.6C8.41589 14.5993 8.98065 13.6817 9.70703 12.9C12.4445 9.875 16.9945 9.4125 20.332 11.75V8L12.832 0.5ZM11.582 9.25V2.375L18.457 9.25H11.582ZM20.7195 21.625C22.382 18.9875 21.582 15.5 18.9695 13.85C16.332 12.1875 12.832 13 11.1945 15.6C9.51953 18.2375 10.332 21.7125 12.9445 23.375C14.7695 24.5375 17.0945 24.5375 18.932 23.4L22.832 27.2375L24.5695 25.5L20.7195 21.625ZM15.957 21.75C15.1282 21.75 14.3334 21.4208 13.7473 20.8347C13.1613 20.2487 12.832 19.4538 12.832 18.625C12.832 17.7962 13.1613 17.0013 13.7473 16.4153C14.3334 15.8292 15.1282 15.5 15.957 15.5C16.7858 15.5 17.5807 15.8292 18.1667 16.4153C18.7528 17.0013 19.082 17.7962 19.082 18.625C19.082 19.4538 18.7528 20.2487 18.1667 20.8347C17.5807 21.4208 16.7858 21.75 15.957 21.75Z" fill="#397FB9"/>
</svg>
