<svg width="22" height="22" viewBox="0 0 22 22" fill="none" xmlns="http://www.w3.org/2000/svg">
<path d="M10.0786 4.29V7.84667C10.0786 8.14116 10.0205 8.43276 9.90748 8.70473C9.79451 8.97669 9.62893 9.22367 9.42027 9.43148C9.2116 9.63929 8.96395 9.80385 8.69153 9.91572C8.4191 10.0276 8.12727 10.0845 7.83278 10.0833H4.29444C4.00074 10.0851 3.70971 10.0276 3.43878 9.91417C3.16786 9.80076 2.92262 9.63381 2.71778 9.42333C2.5098 9.21709 2.3451 8.97139 2.23334 8.70064C2.12158 8.4299 2.06501 8.13956 2.06694 7.84667V4.29917C2.06694 3.70755 2.30133 3.14003 2.7188 2.72084C3.13628 2.30164 3.70283 2.06492 4.29444 2.0625H7.84194C8.13534 2.06278 8.42576 2.12126 8.69639 2.23455C8.96703 2.34784 9.21251 2.51369 9.41861 2.7225C9.62714 2.9269 9.7929 3.17077 9.90621 3.43989C10.0195 3.70901 10.0781 3.998 10.0786 4.29ZM19.9328 4.29917V7.84667C19.928 8.43682 19.6921 9.00158 19.2756 9.41975C18.8592 9.83792 18.2954 10.0762 17.7053 10.0833H14.1486C13.5557 10.0797 12.9873 9.84642 12.5628 9.4325C12.3553 9.22395 12.1911 8.97653 12.0794 8.70441C11.9677 8.43229 11.9108 8.14081 11.9119 7.84667V4.29917C11.9112 4.00562 11.9692 3.7149 12.0826 3.44412C12.1959 3.17334 12.3623 2.92798 12.5719 2.7225C12.778 2.51369 13.0235 2.34784 13.2942 2.23455C13.5648 2.12126 13.8552 2.06278 14.1486 2.0625H17.6961C18.2878 2.06729 18.854 2.30448 19.2724 2.7229C19.6908 3.14132 19.928 3.70745 19.9328 4.29917ZM19.9328 14.1533V17.7008C19.928 18.291 19.6921 18.8557 19.2756 19.2739C18.8592 19.6921 18.2954 19.9303 17.7053 19.9375H14.1486C13.5519 19.9436 12.9764 19.7166 12.5444 19.305C12.3362 19.0971 12.1714 18.8498 12.0597 18.5775C11.9479 18.3052 11.8915 18.0135 11.8936 17.7192V14.1717C11.8929 13.8781 11.9509 13.5874 12.0642 13.3166C12.1776 13.0458 12.344 12.8005 12.5536 12.595C12.7597 12.3862 13.0052 12.2203 13.2758 12.1071C13.5465 11.9938 13.8369 11.9353 14.1303 11.935H17.6778C18.2695 11.9398 18.8356 12.177 19.254 12.5954C19.6725 13.0138 19.9097 13.5799 19.9144 14.1717L19.9328 14.1533ZM10.0786 14.1625V17.71C10.0714 18.3017 9.83189 18.8669 9.41175 19.2836C8.99162 19.7003 8.42452 19.9351 7.83278 19.9375H4.29444C4.00158 19.9387 3.71138 19.8819 3.44058 19.7704C3.16978 19.6589 2.92374 19.4949 2.71666 19.2878C2.50957 19.0807 2.34554 18.8347 2.23403 18.5639C2.12252 18.2931 2.06573 18.0029 2.06694 17.71V14.1625C2.0693 13.5708 2.30417 13.0037 2.72088 12.5835C3.13759 12.1634 3.70274 11.9239 4.29444 11.9167H7.84194C8.43613 11.9227 9.00472 12.1594 9.42778 12.5767C9.84586 12.9984 10.0799 13.5686 10.0786 14.1625Z" fill="#999999"/>
</svg>
