<svg width="22" height="22" viewBox="0 0 22 22" fill="none" xmlns="http://www.w3.org/2000/svg">
  <path d="M6.1875 7.5625C6.1875 6.28615 6.69453 5.06207 7.59705 4.15955C8.49957 3.25703 9.72365 2.75 11 2.75C12.2764 2.75 13.5004 3.25703 14.403 4.15955C15.3055 5.06207 15.8125 6.28615 15.8125 7.5625C15.8125 7.74484 15.8849 7.91971 16.0139 8.04864C16.1428 8.17757 16.3177 8.25 16.5 8.25C16.6823 8.25 16.8572 8.17757 16.9861 8.04864C17.1151 7.91971 17.1875 7.74484 17.1875 7.5625C17.1874 6.50728 16.9175 5.46961 16.4033 4.54813C15.8891 3.62664 15.1478 2.85197 14.2499 2.29773C13.3519 1.74349 12.3272 1.42811 11.273 1.38156C10.2188 1.33501 9.17018 1.55883 8.22687 2.03177C7.28356 2.5047 6.47688 3.21102 5.88349 4.0836C5.2901 4.95617 4.92973 5.96601 4.83663 7.01712C4.74353 8.06822 4.92079 9.12568 5.35157 10.089C5.78234 11.0523 6.45232 11.8894 7.29781 12.5208C8.02283 13.0623 8.85783 13.4383 9.74394 13.6221C9.86703 13.8982 10.0777 14.1261 10.3433 14.2704C10.6089 14.4147 10.9147 14.4675 11.2133 14.4206C11.5119 14.3736 11.7867 14.2296 11.9953 14.0107C12.2038 13.7919 12.3344 13.5104 12.3668 13.2099C12.3993 12.9093 12.3318 12.6065 12.1748 12.3482C12.0178 12.0898 11.7801 11.8904 11.4984 11.7808C11.2167 11.6712 10.9067 11.6575 10.6164 11.7418C10.3261 11.8261 10.0716 12.0037 9.89244 12.2471C8.83753 11.9977 7.89775 11.3993 7.22532 10.5491C6.55289 9.69886 6.18721 8.6465 6.1875 7.5625ZM6.875 7.5625C6.87527 6.80363 7.08487 6.05955 7.48075 5.41211C7.87662 4.76468 8.44342 4.239 9.11877 3.89292C9.79413 3.54683 10.5519 3.39375 11.3086 3.45053C12.0654 3.5073 12.7918 3.77173 13.4079 4.21471C14.0241 4.65769 14.5061 5.26206 14.8009 5.96131C15.0958 6.66057 15.192 7.4276 15.079 8.17801C14.9661 8.92843 14.6483 9.63314 14.1607 10.2146C13.673 10.7961 13.0345 11.2317 12.3152 11.4737C11.9453 11.1675 11.4802 11 11 11C10.5002 11 10.0423 11.1781 9.68481 11.4737C8.86583 11.1982 8.15404 10.6725 7.64989 9.9707C7.14574 9.26894 6.87469 8.42658 6.875 7.5625ZM11 15.125C11.3301 15.1252 11.6553 15.0461 11.9485 14.8945C12.2417 14.7429 12.4942 14.5232 12.6848 14.2537C12.8754 13.9843 12.9986 13.673 13.044 13.3461C13.0894 13.0192 13.0556 12.6862 12.9456 12.375H16.8438C17.4819 12.375 18.094 12.6285 18.5452 13.0798C18.9965 13.531 19.25 14.1431 19.25 14.7813V15.125C19.25 16.7702 18.2029 18.1617 16.7166 19.1077C15.2219 20.0592 13.1986 20.625 11 20.625C8.80137 20.625 6.77875 20.0592 5.28344 19.1077C3.79706 18.1617 2.75 16.7702 2.75 15.125V14.7813C2.75 14.1431 3.00352 13.531 3.45477 13.0798C3.90603 12.6285 4.51807 12.375 5.15625 12.375H6.09056C6.96984 13.2728 8.07837 13.9124 9.29569 14.2244C9.66694 14.7682 10.2926 15.125 11 15.125Z" fill="#A94BEA"/>
</svg>
