<svg xmlns="http://www.w3.org/2000/svg" width="40" height="40" viewBox="0 0 40 40" fill="#A94BEA">
<path d="M11.25 12.5C11.25 14.8206 12.1719 17.0462 13.8128 18.6872C15.4538 20.3281 17.6794 21.25 20 21.25C22.3206 21.25 24.5462 20.3281 26.1872 18.6872C27.8281 17.0462 28.75 14.8206 28.75 12.5C28.75 10.1794 27.8281 7.95376 26.1872 6.31282C24.5462 4.67187 22.3206 3.75 20 3.75C17.6794 3.75 15.4538 4.67187 13.8128 6.31282C12.1719 7.95376 11.25 10.1794 11.25 12.5ZM32.5 36.25H6.25C5.91848 36.25 5.60054 36.1183 5.36612 35.8839C5.1317 35.6495 5 35.3315 5 35V31.25C5 29.5924 5.65848 28.0027 6.83058 26.8306C8.00269 25.6585 9.5924 25 11.25 25H28.75C30.4076 25 31.9973 25.6585 33.1694 26.8306C34.3415 28.0027 35 29.5924 35 31.25V35C35 35.3315 34.8683 35.6495 34.6339 35.8839C34.3995 36.1183 34.0815 36.25 33.75 36.25H32.5Z" fill="#A94BEA"/>
</svg>