<svg width="44" height="60" viewBox="0 0 44 60" fill="none" xmlns="http://www.w3.org/2000/svg">
<path d="M21.752 15C25.8941 15 29.252 11.6421 29.252 7.5C29.252 3.35786 25.8941 0 21.752 0C17.6098 0 14.252 3.35786 14.252 7.5C14.252 11.6421 17.6098 15 21.752 15Z" fill="#424C56"/>
<path d="M29.25 18.75H14.25C13.6678 18.75 13.0937 18.8855 12.5729 19.1459C12.0522 19.4063 11.5993 19.7843 11.25 20.25L0 35.25L6 39.75L10.5 33.75V60H18V45H25.5V60H33V33.75L37.5 39.75L43.5 35.25L32.25 20.25C31.9007 19.7843 31.4478 19.4063 30.927 19.1459C30.4063 18.8855 29.8322 18.75 29.25 18.75Z" fill="#424C56"/>
</svg>
