<svg width="40" height="40" viewBox="0 0 40 40" fill="none" xmlns="http://www.w3.org/2000/svg">
  <path d="M27.2666 23.3333C27.3999 22.2333 27.4999 21.1333 27.4999 20C27.4999 18.8666 27.3999 17.7666 27.2666 16.6666H32.8999C33.1666 17.7333 33.3333 18.85 33.3333 20C33.3333 21.15 33.1666 22.2666 32.8999 23.3333M24.3166 32.6C25.3166 30.75 26.0833 28.75 26.6166 26.6666H31.5333C29.9185 29.4471 27.3568 31.5533 24.3166 32.6ZM23.8999 23.3333H16.0999C15.9333 22.2333 15.8333 21.1333 15.8333 20C15.8333 18.8666 15.9333 17.75 16.0999 16.6666H23.8999C24.0499 17.75 24.1666 18.8666 24.1666 20C24.1666 21.1333 24.0499 22.2333 23.8999 23.3333ZM19.9999 33.2666C18.6166 31.2666 17.4999 29.05 16.8166 26.6666H23.1833C22.4999 29.05 21.3833 31.2666 19.9999 33.2666ZM13.3333 13.3333H8.46659C10.0643 10.545 12.6243 8.43538 15.6666 7.39998C14.6666 9.24998 13.9166 11.25 13.3333 13.3333ZM8.46659 26.6666H13.3333C13.9166 28.75 14.6666 30.75 15.6666 32.6C12.6304 31.5538 10.0737 29.447 8.46659 26.6666ZM7.09992 23.3333C6.83325 22.2666 6.66659 21.15 6.66659 20C6.66659 18.85 6.83325 17.7333 7.09992 16.6666H12.7333C12.5999 17.7666 12.4999 18.8666 12.4999 20C12.4999 21.1333 12.5999 22.2333 12.7333 23.3333M19.9999 6.71665C21.3833 8.71665 22.4999 10.95 23.1833 13.3333H16.8166C17.4999 10.95 18.6166 8.71665 19.9999 6.71665ZM31.5333 13.3333H26.6166C26.0942 11.2693 25.3218 9.27682 24.3166 7.39998C27.3833 8.44998 29.9333 10.5666 31.5333 13.3333ZM19.9999 3.33331C10.7833 3.33331 3.33325 10.8333 3.33325 20C3.33325 24.4203 5.0892 28.6595 8.21481 31.7851C9.76245 33.3327 11.5998 34.5604 13.6219 35.398C15.644 36.2355 17.8112 36.6666 19.9999 36.6666C24.4202 36.6666 28.6594 34.9107 31.785 31.7851C34.9106 28.6595 36.6666 24.4203 36.6666 20C36.6666 17.8113 36.2355 15.644 35.3979 13.6219C34.5603 11.5998 33.3327 9.76251 31.785 8.21487C30.2374 6.66722 28.4001 5.43957 26.378 4.60199C24.3559 3.76441 22.1886 3.33331 19.9999 3.33331Z" fill="#A94BEA"/>
</svg>
